<svg width="65" height="88" viewBox="0 0 65 88" fill="none" xmlns="http://www.w3.org/2000/svg">
<path d="M30.9571 0.443564C24.6006 0.533676 17.853 5.76466 17.853 12.3697C17.853 19.5209 24.4272 27.4585 35.8561 33.6095C54.0821 43.4191 48.9407 65.9885 29.3219 65.9885C21.6204 65.9885 16.3121 58.8444 15.9201 52.0554C15.8966 51.9341 15.8823 51.8112 15.8772 51.6878C15.7936 49.5114 18.5512 47.302 22.0366 46.7527C25.5221 46.203 28.4147 47.5217 28.4985 49.6983H28.499C28.5825 51.875 25.8245 54.0842 22.339 54.6335C21.8338 54.7139 21.3233 54.7553 20.8118 54.7573C21.4528 54.9789 22.1076 55.1588 22.7719 55.2958C28.3417 56.4444 33.6132 54.5064 34.5459 50.9679H34.5462C35.4791 47.4294 31.72 43.6298 26.1503 42.4812C24.0345 42.0451 21.9623 42.055 20.1539 42.4281C20.1732 42.4142 20.1913 42.3996 20.2107 42.3861C-12.1798 48.0492 -0.600768 87.3655 29.0815 87.3655C63.2127 87.3655 71.604 55.0857 59.5483 39.2898C57.6217 36.7654 55.3698 34.6761 52.9611 32.8465C44.8415 24.9058 41.5056 15.4888 48.4606 5.38944C40.0319 7.16716 36.8488 16.028 37.9986 23.6488C33.9646 21.1444 30.4314 18.4014 28.2202 14.5718C24.6903 8.45738 27.5858 1.88715 36.048 1.66007C34.4862 0.796442 32.737 0.418333 30.9571 0.443564ZM13.9249 1.8457C7.9703 1.88247 2.61442 6.18008 3.19384 11.8486V11.849C4.30041 22.6775 15.6026 32.8324 32.5396 34.7356C22.0762 30.5039 15.8771 23.8166 12.5828 14.3938C10.4302 8.23733 13.1914 3.36012 17.6618 2.39899C16.4519 2.0236 15.1916 1.83697 13.9249 1.8457ZM26.0172 36.5074C23.9536 36.4989 21.6774 36.698 19.1741 37.1444L19.1746 37.1448C33.8502 37.6975 39.0221 46.218 38.542 51.5356C38.0319 57.1907 29.2442 61.0749 22.2307 57.912C28.5898 65.4831 39.2337 61.9201 42.1302 56.6423C45.549 50.4132 42.8217 36.5762 26.0172 36.5074Z" fill="#EFB8C8"/>
</svg>
